<?xml version="1.0" encoding="UTF-8"?>
<svg enable-background="new -0.258 -0.548 123.547 123.539" viewBox="-0.258 -0.548 123.547 123.539" xmlns="http://www.w3.org/2000/svg">
 <path d="m109.65 122.9c8.125 0 14.742-6.617 14.742-14.773v-94.017c0-8.156-6.617-14.75-14.742-14.75h-94.039c-8.133 0-14.75 6.594-14.75 14.75v94.016c0 8.156 6.617 14.773 14.75 14.773h94.039z" fill="#3a5a98"/>
 <path d="m15.609 1.848c-6.75 0-12.242 5.492-12.242 12.258v94.016c0 6.766 5.492 12.258 12.242 12.258h94.039c6.758 0 12.25-5.492 12.25-12.258v-94.017c0-6.766-5.492-12.258-12.25-12.258h-94.039z" fill="#3a5a98"/>
 <path d="m60.43,8.754c-4.977.539-23.094,8.844-23.633,51.539-.562,44.992 18.656,54.469 23.68,54.367v-29.711c-4.148,0-4.977-4.516-5.93-13.836-.609-6.18-.805-13.797 0-21.391 .586-5.32 1.562-10.523 5.906-10.523l-.023-30.445z" fill="#fff"/>
 <path d="m74.172 114.72c1.93 0 3.297-1.562 3.297-3.32l0.023-0.023s-0.023-23.148-0.023-23.172c0-1.828-1.492-3.273-3.297-3.273h-8.422v29.789s8.398 0.023 8.398 0h0.024z" fill="#fff"/>
 <path d="m74.172,39.199c1.93,0 3.297-1.562 3.297-3.32h.023c0,0-.023-23.828-.023-23.852 0-1.828-1.492-3.273-3.297-3.273h-8.422v30.445l8.398.023 .024-.023z" fill="#fff"/>
</svg>
