<?xml version="1.0" encoding="UTF-8"?>
<svg viewBox="0 0 744.09447 1052.362179" xmlns="http://www.w3.org/2000/svg">
 <g transform="translate(-42.753 -46.825)" fill-rule="evenodd">
  <path d="m182.48 116.64h463.51a45 45 0 0 1 45 45v741.35a45 45 0 0 1 -45 45h-463.51a45 45 0 0 1 -45 -45v-741.35a45 45 0 0 1 45 -45" fill="#fff" stroke="#0875c6" stroke-width="5"/>
  <path d="m183.87 141.12h460.37a23 23 0 0 1 23 23v737.48a23 23 0 0 1 -23 23h-460.37a23 23 0 0 1 -23 -23v-737.48a23 23 0 0 1 23 -23" fill="#0875c6" stroke="#0875c6" stroke-width="3.9086"/>
  <path d="m356.53 882.5v-468.28l-116.81 118.12v-174.19l174.29-175.53 174.29 175.53v174.19l-116.81-118.12v468.28h-114.95z" fill="#fff"/>
 </g>
</svg>
