<?xml version="1.0" encoding="UTF-8"?>
<svg viewBox="0 0 48 48" xmlns="http://www.w3.org/2000/svg">
 <defs>
  <linearGradient id="d" x2="0" y1="10.03" y2="37.969" gradientUnits="userSpaceOnUse">
   <stop stop-color="#fff" stop-opacity=".8" offset="0"/>
   <stop stop-color="#fff" stop-opacity="0" offset="1"/>
  </linearGradient>
  <radialGradient id="e" cx="25.391" cy="42.806" r="22.753" gradientTransform="matrix(1 0 0 .11232 0 37.998)" gradientUnits="userSpaceOnUse">
   <stop stop-color="#2e3436" offset="0"/>
   <stop stop-color="#2e3436" stop-opacity="0" offset="1"/>
  </radialGradient>
  <linearGradient id="f" x1="2.531" x2="15.851" y1="-16.178" y2="27.16" gradientUnits="userSpaceOnUse">
   <stop stop-color="#fff" offset="0"/>
   <stop stop-color="#fff" stop-opacity="0" offset="1"/>
  </linearGradient>
 </defs>
 <path transform="matrix(1.0835 0 0 .53179 -3.5109 16.012)" d="m48.144 42.806a22.753 2.5556 0 1 1 -45.506 0 22.753 2.5556 0 1 1 45.506 0z" fill="url(#e)" opacity=".8"/>
 <rect x="1.5" y="9" width="45" height="30" fill="#3465a4"/>
 <path d="m1.5 9.0625v3.5l40.125 26.375h4.875v-3.5l-40.125-26.375h-4.875z" fill="#d3d7cf"/>
 <path d="m41.625 9.0625-40.125 26.375v3.5h4.875l40.125-26.375v-3.5h-4.875z" fill="#d3d7cf"/>
 <path d="m43.312 9.0625-15.125 9.9688h3.375l14.938-9.8125v-0.15625h-3.1875zm-41.812 0.15625v2.2188l11.531 7.5938h3.4062l-14.938-9.8125z" fill="#c00"/>
 <path d="m20.219 9.0625v9.9688h-18.719v9.9375h18.719v9.9688h7.5625v-9.9688h18.719v-9.9375h-18.719v-9.9688h-7.5625z" fill="#d3d7cf"/>
 <path d="m16.438 28.969-14.938 9.8125v0.15625h3.1875l15.125-9.9688h-3.375zm15.125 0 14.938 9.8125v-2.2188l-11.531-7.5938h-3.4062z" fill="#c00"/>
 <path d="m21.719 9.0625v11.938h-20.219v6h20.219v11.938h4.5625v-11.938h20.219v-6h-20.219v-11.938h-4.5625z" fill="#c00"/>
 <path d="m2.0312 9.5312v28.938h43.938v-28.938h-43.938z" fill="none" opacity=".6" stroke="#000"/>
 <path d="m3.0312 10.531v26.938h41.938v-26.938h-41.938z" fill="none" opacity=".8" stroke="url(#d)"/>
 <path d="m2.5312 10.031v14.656c11.943-3.6387 26.282-6.2876 42.938-8.375v-6.2812h-42.938z" fill="url(#f)" opacity=".6"/>
</svg>
