<?xml version="1.0" encoding="UTF-8"?>
<svg width="225.78mm" height="227.99mm" version="1.1" viewBox="0 0 800.00003 807.84881" xmlns="http://www.w3.org/2000/svg">
 <g transform="translate(-276.9 524.92)">
  <g transform="matrix(7.6148 0 0 7.6148 -4710.7 -561.89)" fill="#ffff32">
   <path d="m707.61 80.304c-12.441 0-22.535-10.088-22.535-22.535s10.093-22.533 22.535-22.533c12.447 0 22.534 10.086 22.534 22.533 0 12.446-10.086 22.535-22.534 22.535z"/>
   <path d="m716.65 81.465a25.479 25.479 0 0 1 -5.5 1.4336c2.5369 8.6348 9.8227 15.157 11.535 24.441 4.5946-8.0156-6.6257-17.556-6.0352-25.875z"/>
   <path d="m725.78 7.4277c-2.056 5.512-6.4649 8.5658-9.1289 13.51-1.434 2.672-2.1612 5.8302-2.4922 8.8242-0.16818 1.5431-0.25674 2.6422-0.0723 3.3984a25.479 25.479 0 0 1 3.8262 1.3691c0.0726-0.0047 0.12403-0.0023 0.19922-0.0078 0.041-1.999 0.41914-4.0648 0.74414-6.0508 0.601-3.708 3.3655-6.5295 4.9375-9.7715 1.775-3.655 0.67333-7.7605 1.9863-11.271z"/>
   <path d="m739.93 13.838c-2.061 1.127-4.0776 2.1896-5.6836 4.0176-1.606 1.829-3.1939 3.8863-4.2109 6.1113-1.195 2.607-3.0447 4.4643-4.8027 6.6543-1.1791 1.4663-3.5632 3.3301-4.8906 5.1719a25.479 25.479 0 0 1 4.2246 3.123c1.4481-1.708 4.5436-5.4657 4.8301-5.8281 1.172-1.491 1.9388-3.1082 2.6738-4.8672 1.092-2.588 2.1328-5.2064 3.4648-7.6914 0.654-1.215 1.4716-2.3274 2.1426-3.5234 0.645-1.143 1.202-2.339 2.252-3.168z"/>
   <path d="m747.92 26.441c0.685-0.122 1.353-0.298 2.014-0.497 0.402-0.224 0.804-0.449 1.188-0.703l-3.202 1.2zm-5.207 6.82c2.744-2.396 4.912-6.165 8.288-7.648-0.346 0.125-0.709 0.231-1.067 0.332-4.155 2.361-9.049 3.244-12.735 6.499-2.064 1.833-7.869 6.232-10.17 9.043 1.099 1.313 2.08 2.742 2.889 4.282 2.305-3.965 10.011-10.076 12.795-12.508z"/>
   <path d="m730.88 47.828c0.658 1.585 1.151 3.26 1.47 5 2.904-1.497 7.481-2.397 9.877-4.415 3.191-2.687 6.058-5.773 10.095-7.23 1.836-0.662 3.927-0.814 5.92-0.685-5.763-0.368-11.725-0.907-16.727 2.787-2.98 2.202-6.909 3.611-10.635 4.543z"/>
   <path d="m732.78 57.448c0 0.753-0.042 1.494-0.108 2.235 4.644-0.088 9.885-1.546 14.263-1.402 4.628 0.156 8.961 0.932 13.116-1.691-1.474 0.93-6.252 0.259-8.055 0.111-3.356-0.281-6.447-1.811-9.783-2.177-2.641-0.299-6.695-0.068-9.575 0.299 0.09 0.862 0.142 1.735 0.142 2.625z"/>
   <path d="m730.54 67.801c2.421 0.695 5.093 1.631 7.315 2.046 3.255 0.602 6.459 0.665 9.678 1.638 1.307 0.392 9.608 3.26 9.522 4.261 0.247-2.985-7.874-8.453-10.733-9.105-0.427-0.1-0.857-0.154-1.294-0.193-1.434-0.113-2.906-0.01-4.309-0.323-2.26-0.496-6.198-2.424-8.641-2.836-0.372 1.575-0.889 3.085-1.538 4.512z"/>
   <path d="m729.79 69.9a25.479 25.479 0 0 1 -3.3457 4.7227c1.4714 0.9081 3.3115 1.7718 4.4785 2.5879 1.769 1.242 3.6122 2.3798 5.3652 3.4668 4.322 2.687 9.4439 5.4672 14.711 5.5332-5.975-0.07-10.552-7.5245-14.527-11.145-1.6832-1.5324-4.2756-3.9492-6.6816-5.166z"/>
   <path d="m724.8 76.32a25.479 25.479 0 0 1 -4.8965 3.5723c2.455 2.8946 4.5243 7.9276 6.8008 10.34 3.04 3.225 7.8857 4.6491 10.348 8.3691-0.573-3.402-3.0152-6.442-5.5352-8.793-1.205-1.136-3.2358-2.1337-3.9258-3.7227-0.74-1.718-0.0518-3.827-0.42578-5.623-0.10966-0.52696-1.4258-2.5752-2.3652-4.1426z"/>
   <path d="m692.35 7.8867c-4.6213 8.062 6.7561 17.668 6.0234 26.021a25.479 25.479 0 0 1 5.5606 -1.4004c-2.4883-8.7229-9.8599-15.273-11.584-24.621z"/>
   <path d="m696.92 80.908c-0.0609 1.9365-0.41825 3.9298-0.73242 5.8496-0.601 3.708-3.3655 6.5275-4.9375 9.7695-1.775 3.655-0.67333 7.7624-1.9863 11.273 2.056-5.512 6.4649-8.5658 9.1289-13.51 1.434-2.672 2.1612-5.8302 2.4922-8.8242 0.15066-1.3823 0.22158-2.3842 0.10546-3.127a25.479 25.479 0 0 1 -4.0703 -1.4316z"/>
   <path d="m690.29 76.541c-1.5089 1.7875-4.3653 5.2495-4.6406 5.5977-1.172 1.491-1.9388 3.1082-2.6738 4.8672-1.092 2.588-2.1309 5.2084-3.4629 7.6934-0.654 1.215-1.4735 2.3274-2.1445 3.5234-0.645 1.143-1.202 2.339-2.252 3.168 2.061-1.127 4.0776-2.1896 5.6836-4.0176 1.606-1.829 3.1939-3.8863 4.2109-6.1113 1.195-2.607 3.0447-4.4643 4.8027-6.6543 1.1299-1.4051 3.3616-3.1774 4.7148-4.9434a25.479 25.479 0 0 1 -4.2383 -3.123z"/>
   <path d="m684.96 69.715c-2.473 3.9675-9.9049 9.8706-12.631 12.252-2.744 2.396-4.9111 6.1654-8.2871 7.6484 0.346-0.125 0.70841-0.23103 1.0664-0.33203 4.155-2.361 9.0503-3.243 12.736-6.498 2.0127-1.7875 7.5595-6.0047 9.9688-8.8203a25.479 25.479 0 0 1 -2.8535 -4.25zm-17.838 19.072c-0.685 0.122-1.3527 0.29905-2.0137 0.49805-0.40201 0.224-0.8035 0.44912-1.1875 0.70312l3.2012-1.2012z"/>
   <path d="m682.42 62.529c-2.9109 1.4191-7.2753 2.3295-9.5996 4.2871-3.191 2.687-6.0568 5.7715-10.094 7.2285-1.836 0.662-3.9269 0.81455-5.9199 0.68555 5.763 0.368 11.725 0.90689 16.727-2.7871 2.9107-2.1508 6.7251-3.5366 10.373-4.4688a25.479 25.479 0 0 1 -1.4863 -4.9453z"/>
   <path d="m682.04 55.562c-4.563 0.14618-9.6605 1.5254-13.938 1.3848-4.628-0.156-8.9602-0.93159-13.115 1.6914 1.474-0.93 6.2517-0.25933 8.0547-0.11133 3.356 0.281 6.4472 1.8117 9.7832 2.1777 2.5583 0.28964 6.4227 0.07931 9.2812-0.26758a25.479 25.479 0 0 1 -0.17383 -2.7188 25.479 25.479 0 0 1 0.10742 -2.1562z"/>
   <path d="m657.99 39.482c-0.247 2.985 7.8754 8.4535 10.734 9.1055 0.427 0.1 0.85597 0.15436 1.293 0.19336 1.434 0.113 2.9056 0.0093 4.3086 0.32227 2.1672 0.47562 5.865 2.2539 8.3203 2.7637a25.479 25.479 0 0 1 1.5293 -4.5391c-2.3339-0.68322-4.8606-1.5506-6.9844-1.9473-3.255-0.602-6.4587-0.66372-9.6777-1.6367-1.307-0.392-9.6094-3.2607-9.5234-4.2617z"/>
   <path d="m664.04 29.016c5.975 0.07 10.552 7.5265 14.527 11.146 1.6679 1.5184 4.2278 3.9034 6.6152 5.1309a25.479 25.479 0 0 1 3.4004 -4.6953c-1.4695-0.90543-3.3029-1.7662-4.4668-2.5801-1.769-1.242-3.6122-2.3818-5.3652-3.4688-4.322-2.687-9.4439-5.4672-14.711-5.5332z"/>
   <path d="m677.99 16.627c0.573 3.402 3.0152 6.442 5.5352 8.793 1.205 1.136 3.2358 2.1317 3.9258 3.7207 0.74001 1.718 0.0518 3.829 0.42579 5.625 0.11001 0.52865 1.4351 2.5891 2.375 4.1582a25.479 25.479 0 0 1 4.9375 -3.5293c-2.477-2.8844-4.5596-7.9698-6.8516-10.398-3.04-3.225-7.8856-4.6491-10.348-8.3691z"/>
   <path d="m706.01 4.8555c-1.5521 5.5154-3.2991 11.184-1.1074 16.914 1.2057 3.1496 1.6263 6.9181 1.709 10.5a25.479 25.479 0 0 1 0.80274 -0.0293 25.479 25.479 0 0 1 3.8887 0.33008c-0.6203-3.1598-0.5018-7.5838-1.7266-10.289-1.6895-3.7328-3.7999-7.2435-4.2246-11.51-0.19261-1.9401 0.1199-4.009 0.6582-5.916z"/>
   <path d="m703.73 82.896c0.19671 2.3728 0.58552 6.6197 0.63281 7.0488 0.21197 1.8808 0.74969 3.5618 1.3945 5.3184 0.94228 2.5919 1.936 5.1683 2.668 7.8594 0.35623 1.3177 0.54875 2.6795 0.88281 3.9961 0.31699 1.2609 0.72066 2.4961 0.5957 3.8262 0.55605-2.2605 1.1256-4.4425 0.96875-6.8691-0.15743-2.4273-0.46799-5.0029-1.2305-7.2871-0.8913-2.6788-0.91797-5.2993-1.207-8.0879-0.17304-1.6815 0.16872-3.5774 0-5.541a25.479 25.479 0 0 1 -1.0176 0.03711 25.479 25.479 0 0 1 -3.6875 -0.30078z"/>
  </g>
 </g>
</svg>
